<svg width="73" height="29" viewBox="0 0 73 29" fill="none" xmlns="http://www.w3.org/2000/svg">
<path d="M24.1802 5.02108C32.8206 5.65773 37.684 3.21238 39.3529 0H48.1749C45.5219 7.67085 37.2499 12.4768 24.1802 11.8192V5.02108Z" fill="#021836"/>
<path fill-rule="evenodd" clip-rule="evenodd" d="M54.5459 11.8243L51.3817 16.2695L58.6912 26.9654V11.8243H54.5459ZM32.6681 12.7261L32.6675 26.4236L39.5688 16.1745L36.3317 11.9344C39.0359 11.1883 41.4914 10.0339 43.6317 8.35812L45.7163 10.999L49.673 5.02106H72.1583V11.8059H67.1018V28.3722H49.673L45.2126 21.7089L40.5763 28.3722H24.1821V23.8163C23.0038 27.0381 19.2838 29 11.9079 29C0.967051 29 0.43675 25.1326 0.269043 20.7032H8.92144C8.94928 22.0253 9.17272 22.9841 9.70302 23.6118C10.2612 24.2403 11.015 24.5706 12.1313 24.5706C13.8894 24.5706 15.7873 24.0751 15.7873 22.1575C15.7873 21.7278 15.6481 21.3646 15.4247 21.0671C14.2805 19.547 4.65092 18.4231 1.94356 15.6132C0.855057 14.4892 0.520275 12.8039 0.520275 11.4484C0.520275 6.22602 4.56737 3.87939 12.6337 3.87939C21.202 3.87939 23.2303 6.8785 23.3423 11.8034H15.0101C14.9545 10.4813 14.5583 9.44853 13.9773 8.96945C13.416 8.5062 12.9293 8.29167 12.075 8.30812C10.2891 8.34356 9.34039 9.10172 9.34039 10.325C9.34039 10.6883 9.45183 11.1509 9.70302 11.4154C11.015 12.9027 20.3369 13.9608 23.0164 16.803C23.4417 17.2529 23.8752 17.8402 24.1821 18.6553V13.1583C26.9502 13.2609 29.831 13.1697 32.6681 12.7261Z" fill="#021836"/>
</svg>
